<?xml version="1.0" standalone="no"?>
<!DOCTYPE svg PUBLIC "-//W3C//DTD SVG 20010904//EN"
 "http://www.w3.org/TR/2001/REC-SVG-20010904/DTD/svg10.dtd">
<svg version="1.0" xmlns="http://www.w3.org/2000/svg"
 width="256.000000pt" height="256.000000pt" viewBox="0 0 256.000000 256.000000"
 preserveAspectRatio="xMidYMid meet">
<metadata>
Created by potrace 1.16, written by Peter Selinger 2001-2019
</metadata>
<g transform="translate(0.000000,256.000000) scale(0.100000,-0.100000)"
fill="#000000" stroke="none">
<path d="M355 1648 c-27 -11 -60 -21 -73 -23 -32 -3 -60 -32 -72 -73 -18 -65
7 -68 104 -12 37 22 72 40 77 40 24 0 0 -51 -83 -172 -57 -83 -59 -88 -46
-115 23 -48 39 -38 107 63 64 96 159 209 169 200 6 -7 -42 -88 -89 -151 -45
-60 -58 -92 -49 -125 11 -44 34 -33 97 47 34 43 88 103 119 133 l57 55 -41
-50 c-94 -114 -105 -225 -22 -225 39 0 138 72 140 102 0 9 -42 -3 -65 -19 -11
-7 -28 -13 -37 -13 -15 0 -17 5 -12 28 11 45 53 117 111 187 50 60 55 69 45
91 -7 13 -20 24 -30 24 -21 0 -83 -50 -154 -122 l-48 -48 36 66 c31 56 35 69
26 90 -7 13 -20 24 -29 24 -21 0 -95 -57 -136 -103 l-28 -32 16 32 c19 40 19
56 0 93 -18 35 -24 36 -90 8z"/>
</g>
</svg>
